solid Created by Gmsh
facet normal 0.638829 -0.768145 0.0430194
  outer loop
    vertex 196.1288238469487 179.4986854754507 -15.06117381894743
    vertex 196.4196975417296 179.7331871661832 -15.19338069470757
    vertex 196.3735591307535 179.7221495629306 -14.70531901597941
  endloop
endfacet
facet normal -0.834598 0.441923 0.32886
  outer loop
    vertex 194.8601240347724 180.6006922569952 -14.49568761564367
    vertex 195.0641413457672 181.0001331893423 -14.51469192579647
    vertex 194.8690259387061 180.9538436933787 -14.9476619377373
  endloop
endfacet
facet normal -0.871616 0.394444 0.291033
  outer loop
    vertex 194.8690259387061 180.9538436933787 -14.9476619377373
    vertex 194.7244714752012 180.5819174043778 -14.8765084809053
    vertex 194.8601240347724 180.6006922569952 -14.49568761564367
  endloop
endfacet
facet normal 0.789613 -0.610582 0.0608368
  outer loop
    vertex 196.3735591307535 179.7221495629306 -14.70531901597941
    vertex 196.4196975417296 179.7331871661832 -15.19338069470757
    vertex 196.6243164789895 180.0187416818505 -14.98323272501931
  endloop
endfacet
facet normal -0.332461 0.0179208 0.942947
  outer loop
    vertex 195.4806812178737 180.1421259580659 -14.05904290729959
    vertex 195.5148896763639 180.6770650403273 -14.05714840430119
    vertex 195.1111059832522 180.3505039664641 -14.19330676232981
  endloop
endfacet
facet normal 0.554689 0.639791 -0.531965
  outer loop
    vertex 196.3420428104633 180.8132593389692 -15.64575362816407
    vertex 196.0138206666078 181.1235951354293 -15.61475740678159
    vertex 196.3909475574502 181.0569512193787 -15.30167294908624
  endloop
endfacet
facet normal 0.526356 -0.834661 0.162142
  outer loop
    vertex 196.3735591307535 179.7221495629306 -14.70531901597941
    vertex 196.0231195206723 179.5018188464213 -14.70189869051525
    vertex 196.1288238469487 179.4986854754507 -15.06117381894743
  endloop
endfacet
facet normal 0.568366 0.815103 -0.112108
  outer loop
    vertex 196.3909475574502 181.0569512193787 -15.30167294908624
    vertex 196.0302212590705 181.3224595562729 -15.20005570998803
    vertex 196.3641505512529 181.1355296441784 -14.86620841653811
  endloop
endfacet
facet normal -0.0833143 0.956031 0.281182
  outer loop
    vertex 195.767163382331 181.2552641124291 -14.48617865160668
    vertex 195.6215622498106 181.3968609988841 -15.01075491743388
    vertex 195.336006449493 181.2746602319196 -14.67987787660368
  endloop
endfacet
facet normal 0.46894 0.789023 -0.39691
  outer loop
    vertex 196.0138206666078 181.1235951354293 -15.61475740678159
    vertex 196.0302212590705 181.3224595562729 -15.20005570998803
    vertex 196.3909475574502 181.0569512193787 -15.30167294908624
  endloop
endfacet
facet normal 0.0413603 0.96745 0.24966
  outer loop
    vertex 195.767163382331 181.2552641124291 -14.48617865160668
    vertex 196.0212041081577 181.3268810630292 -14.80578512955894
    vertex 195.6215622498106 181.3968609988841 -15.01075491743388
  endloop
endfacet
facet normal -0.424081 0.152134 0.892755
  outer loop
    vertex 195.5148896763639 180.6770650403273 -14.05714840430119
    vertex 195.1400876031175 180.745256158511 -14.24680925866849
    vertex 195.1111059832522 180.3505039664641 -14.19330676232981
  endloop
endfacet
facet normal 0.925484 -0.281752 -0.253169
  outer loop
    vertex 196.6243164789895 180.0187416818505 -14.98323272501931
    vertex 196.4837014958044 179.995395105789 -15.47128212893596
    vertex 196.6749279121818 180.4 -15.22252093395631
  endloop
endfacet
facet normal 0.48743 0.873161 0.00135578
  outer loop
    vertex 196.0302212590705 181.3224595562729 -15.20005570998803
    vertex 196.0212041081577 181.3268810630292 -14.80578512955894
    vertex 196.3641505512529 181.1355296441784 -14.86620841653811
  endloop
endfacet
facet normal -0.275476 0.0142121 0.961203
  outer loop
    vertex 195.7 180.4 -14
    vertex 195.5148896763639 180.6770650403273 -14.05714840430119
    vertex 195.4806812178737 180.1421259580659 -14.05904290729959
  endloop
endfacet
facet normal -0.28189 0.945402 -0.163561
  outer loop
    vertex 195.6215622498106 181.3968609988841 -15.01075491743388
    vertex 195.3658319613673 181.2531769211318 -15.4005257335109
    vertex 195.1933823616675 181.2596471773957 -15.06591888140819
  endloop
endfacet
facet normal -0.0383562 0.270024 -0.962089
  outer loop
    vertex 195.7 180.4 -16
    vertex 195.3932261897596 180.6935999515403 -15.90536672006772
    vertex 195.9056402647274 180.7820565149208 -15.90096886790243
  endloop
endfacet
facet normal -0.156919 0.955623 -0.249323
  outer loop
    vertex 195.7285349064915 181.3084082533432 -15.41710934342143
    vertex 195.3658319613673 181.2531769211318 -15.4005257335109
    vertex 195.6215622498106 181.3968609988841 -15.01075491743388
  endloop
endfacet
facet normal 0.933549 0.270049 0.235711
  outer loop
    vertex 196.6210305183679 180.7893595398228 -15.0100961866041
    vertex 196.5047709469617 180.7983043274319 -14.55988934837306
    vertex 196.6749279121818 180.4 -14.77747906604369
  endloop
endfacet
facet normal 0.727083 0.507282 -0.462619
  outer loop
    vertex 196.3909475574502 181.0569512193787 -15.30167294908624
    vertex 196.5506010203665 180.7296709248777 -15.40962786214034
    vertex 196.3420428104633 180.8132593389692 -15.64575362816407
  endloop
endfacet
facet normal 0.691189 -0.251652 -0.677444
  outer loop
    vertex 196.481831482468 180.4 -15.62348980185873
    vertex 196.4837014958044 179.995395105789 -15.47128212893596
    vertex 196.1831620074283 180.0059263931705 -15.78183148246803
  endloop
endfacet
facet normal 0.889784 -0.157083 -0.428497
  outer loop
    vertex 196.6749279121818 180.4 -15.22252093395631
    vertex 196.4837014958044 179.995395105789 -15.47128212893596
    vertex 196.481831482468 180.4 -15.62348980185873
  endloop
endfacet
facet normal 0.615812 -0.156448 -0.772204
  outer loop
    vertex 196.481831482468 180.4 -15.62348980185873
    vertex 196.1831620074283 180.0059263931705 -15.78183148246803
    vertex 196.1338837391176 180.4 -15.90096886790242
  endloop
endfacet
facet normal -0.715919 0.393113 0.576994
  outer loop
    vertex 194.8601240347724 180.6006922569952 -14.49568761564367
    vertex 195.1400876031175 180.745256158511 -14.24680925866849
    vertex 195.0641413457672 181.0001331893423 -14.51469192579647
  endloop
endfacet
facet normal 0.837239 -0.499667 0.222179
  outer loop
    vertex 196.6243164789895 180.0187416818505 -14.98323272501931
    vertex 196.559509171038 180.0798654640577 -14.6015556954874
    vertex 196.3735591307535 179.7221495629306 -14.70531901597941
  endloop
endfacet
facet normal -0.0686048 0.441886 -0.894444
  outer loop
    vertex 195.3932261897596 180.6935999515403 -15.90536672006772
    vertex 195.6428559053315 181.0738451487479 -15.73665953326718
    vertex 195.9056402647274 180.7820565149208 -15.90096886790243
  endloop
endfacet
facet normal -0.48983 0.558041 0.669818
  outer loop
    vertex 195.0641413457672 181.0001331893423 -14.51469192579647
    vertex 195.1400876031175 180.745256158511 -14.24680925866849
    vertex 195.4278667163681 181.0473145448155 -14.28801168829118
  endloop
endfacet
facet normal 0.824816 0.527891 0.202509
  outer loop
    vertex 196.6210305183679 180.7893595398228 -15.0100961866041
    vertex 196.3641505512529 181.1355296441784 -14.86620841653811
    vertex 196.5047709469617 180.7983043274319 -14.55988934837306
  endloop
endfacet
facet normal 0.891277 0.14628 0.429217
  outer loop
    vertex 196.6749279121818 180.4 -14.77747906604369
    vertex 196.5047709469617 180.7983043274319 -14.55988934837306
    vertex 196.481831482468 180.4 -14.37651019814127
  endloop
endfacet
facet normal 0.265745 0.865125 -0.425368
  outer loop
    vertex 196.0138206666078 181.1235951354293 -15.61475740678159
    vertex 195.7285349064915 181.3084082533432 -15.41710934342143
    vertex 196.0302212590705 181.3224595562729 -15.20005570998803
  endloop
endfacet
facet normal -0.704754 0.697626 -0.128999
  outer loop
    vertex 194.8690259387061 180.9538436933787 -14.9476619377373
    vertex 195.1933823616675 181.2596471773957 -15.06591888140819
    vertex 195.0188915348481 181.0250532860873 -15.3813130580637
  endloop
endfacet
facet normal -0.829805 -0.459942 0.316033
  outer loop
    vertex 194.8596755813109 180.1477816723691 -14.52016587599258
    vertex 194.8250475051144 179.9190418805047 -14.94398733192286
    vertex 195.0383763738909 179.7392394813554 -14.64552896539376
  endloop
endfacet
facet normal 0.789067 0.611197 -0.0617324
  outer loop
    vertex 196.6210305183679 180.7893595398228 -15.0100961866041
    vertex 196.3909475574502 181.0569512193787 -15.30167294908624
    vertex 196.3641505512529 181.1355296441784 -14.86620841653811
  endloop
endfacet
facet normal 0.683668 0.625934 0.37524
  outer loop
    vertex 196.3641505512529 181.1355296441784 -14.86620841653811
    vertex 196.1776134815817 181.1059570392216 -14.47701814468865
    vertex 196.5047709469617 180.7983043274319 -14.55988934837306
  endloop
endfacet
facet normal -0.237599 0.762034 -0.602372
  outer loop
    vertex 195.2977629363679 181.006254739102 -15.686047036257
    vertex 195.3658319613673 181.2531769211318 -15.4005257335109
    vertex 195.6428559053315 181.0738451487479 -15.73665953326718
  endloop
endfacet
facet normal -0.313433 0.946319 0.0789968
  outer loop
    vertex 195.6215622498106 181.3968609988841 -15.01075491743388
    vertex 195.1933823616675 181.2596471773957 -15.06591888140819
    vertex 195.336006449493 181.2746602319196 -14.67987787660368
  endloop
endfacet
facet normal 0.0904577 0.977796 -0.189028
  outer loop
    vertex 195.7285349064915 181.3084082533432 -15.41710934342143
    vertex 195.6215622498106 181.3968609988841 -15.01075491743388
    vertex 196.0302212590705 181.3224595562729 -15.20005570998803
  endloop
endfacet
facet normal -0.796464 -0.585944 -0.149378
  outer loop
    vertex 195.0596870288943 179.6875953346489 -15.28719138535088
    vertex 194.8250475051144 179.9190418805047 -14.94398733192286
    vertex 194.8442164905003 179.9865340090316 -15.31093481500289
  endloop
endfacet
facet normal -0.149766 0.815768 -0.558652
  outer loop
    vertex 195.6428559053315 181.0738451487479 -15.73665953326718
    vertex 195.3658319613673 181.2531769211318 -15.4005257335109
    vertex 195.7285349064915 181.3084082533432 -15.41710934342143
  endloop
endfacet
facet normal -0.762129 -0.641342 -0.0885457
  outer loop
    vertex 195.0596870288943 179.6875953346489 -15.28719138535088
    vertex 195.0838413708845 179.6134829941749 -14.95829216722803
    vertex 194.8250475051144 179.9190418805047 -14.94398733192286
  endloop
endfacet
facet normal 0.991304 -0.131594 0
  outer loop
    vertex 196.6749279121818 180.4 -14.77747906604369
    vertex 196.6243164789895 180.0187416818505 -14.98323272501931
    vertex 196.6749279121818 180.4 -15.22252093395631
  endloop
endfacet
facet normal 0.617333 -0.140182 0.774111
  outer loop
    vertex 196.1338837391176 180.4 -14.09903113209758
    vertex 196.297075035699 180.0078889845394 -14.30017834179016
    vertex 196.481831482468 180.4 -14.37651019814127
  endloop
endfacet
facet normal 0.22058 0.131776 -0.966426
  outer loop
    vertex 195.7 180.4 -16
    vertex 195.9056402647274 180.7820565149208 -15.90096886790243
    vertex 196.1338837391176 180.4 -15.90096886790242
  endloop
endfacet
facet normal 0.22058 -0.131776 0.966426
  outer loop
    vertex 195.7 180.4 -14
    vertex 195.9056402647274 180.0179434850792 -14.09903113209756
    vertex 196.1338837391176 180.4 -14.09903113209758
  endloop
endfacet
facet normal 0.614794 0.166427 -0.770928
  outer loop
    vertex 196.1338837391176 180.4 -15.90096886790242
    vertex 196.3420428104633 180.8132593389692 -15.64575362816407
    vertex 196.481831482468 180.4 -15.62348980185873
  endloop
endfacet
facet normal 0.990555 0.137118 -0
  outer loop
    vertex 196.6749279121818 180.4 -15.22252093395631
    vertex 196.6210305183679 180.7893595398228 -15.0100961866041
    vertex 196.6749279121818 180.4 -14.77747906604369
  endloop
endfacet
facet normal -0.616349 0.514909 -0.595804
  outer loop
    vertex 195.0188915348481 181.0250532860873 -15.3813130580637
    vertex 195.2977629363679 181.006254739102 -15.686047036257
    vertex 195.0154267300159 180.6865766030475 -15.67024867669326
  endloop
endfacet
facet normal -0.838702 0.503659 -0.207142
  outer loop
    vertex 194.7732780129333 180.6621768854905 -15.26916470682776
    vertex 194.8690259387061 180.9538436933787 -14.9476619377373
    vertex 195.0188915348481 181.0250532860873 -15.3813130580637
  endloop
endfacet
facet normal -0.795966 0.397712 -0.456359
  outer loop
    vertex 194.7732780129333 180.6621768854905 -15.26916470682776
    vertex 195.0188915348481 181.0250532860873 -15.3813130580637
    vertex 195.0154267300159 180.6865766030475 -15.67024867669326
  endloop
endfacet
facet normal -0.943044 0.0148159 -0.332338
  outer loop
    vertex 194.8601781872306 180.2929956933928 -15.53221180103805
    vertex 194.7153345044627 180.2752923902135 -15.12199128640854
    vertex 194.7732780129333 180.6621768854905 -15.26916470682776
  endloop
endfacet
facet normal -0.523053 0.16875 -0.835427
  outer loop
    vertex 195.0154267300159 180.6865766030475 -15.67024867669326
    vertex 195.3932261897596 180.6935999515403 -15.90536672006772
    vertex 195.1468185314989 180.3112673198377 -15.82832166117894
  endloop
endfacet
facet normal -0.849484 0.158592 -0.503216
  outer loop
    vertex 194.8601781872306 180.2929956933928 -15.53221180103805
    vertex 194.7732780129333 180.6621768854905 -15.26916470682776
    vertex 195.0154267300159 180.6865766030475 -15.67024867669326
  endloop
endfacet
facet normal -0.71916 0.0403897 -0.693669
  outer loop
    vertex 194.8601781872306 180.2929956933928 -15.53221180103805
    vertex 195.0154267300159 180.6865766030475 -15.67024867669326
    vertex 195.1468185314989 180.3112673198377 -15.82832166117894
  endloop
endfacet
facet normal -0.690005 -0.240261 -0.682765
  outer loop
    vertex 195.0908169293155 179.9269422978708 -15.6364844042454
    vertex 194.8601781872306 180.2929956933928 -15.53221180103805
    vertex 195.1468185314989 180.3112673198377 -15.82832166117894
  endloop
endfacet
facet normal -0.47352 -0.337161 -0.813696
  outer loop
    vertex 195.0908169293155 179.9269422978708 -15.6364844042454
    vertex 195.1468185314989 180.3112673198377 -15.82832166117894
    vertex 195.4646865102789 179.9735375466375 -15.87335979838055
  endloop
endfacet
facet normal -0.515205 -0.684905 -0.515236
  outer loop
    vertex 195.42453893143 179.6370728895577 -15.584861884426
    vertex 195.0596870288943 179.6875953346489 -15.28719138535088
    vertex 195.0908169293155 179.9269422978708 -15.6364844042454
  endloop
endfacet
facet normal -0.782247 -0.0328479 0.622102
  outer loop
    vertex 195.1111059832522 180.3505039664641 -14.19330676232981
    vertex 194.8601240347724 180.6006922569952 -14.49568761564367
    vertex 194.8596755813109 180.1477816723691 -14.52016587599258
  endloop
endfacet
facet normal -0.709909 -0.471157 0.523488
  outer loop
    vertex 194.8596755813109 180.1477816723691 -14.52016587599258
    vertex 195.0383763738909 179.7392394813554 -14.64552896539376
    vertex 195.174866050055 179.9221739723706 -14.29578652246984
  endloop
endfacet
facet normal -0.386291 -0.573399 -0.722491
  outer loop
    vertex 195.42453893143 179.6370728895577 -15.584861884426
    vertex 195.0908169293155 179.9269422978708 -15.6364844042454
    vertex 195.4646865102789 179.9735375466375 -15.87335979838055
  endloop
endfacet
facet normal -0.677862 -0.26498 0.685776
  outer loop
    vertex 195.1111059832522 180.3505039664641 -14.19330676232981
    vertex 194.8596755813109 180.1477816723691 -14.52016587599258
    vertex 195.174866050055 179.9221739723706 -14.29578652246984
  endloop
endfacet
facet normal -0.133071 -0.635934 -0.760185
  outer loop
    vertex 195.42453893143 179.6370728895577 -15.584861884426
    vertex 195.4646865102789 179.9735375466375 -15.87335979838055
    vertex 195.8249820879454 179.7456027258233 -15.74575041752779
  endloop
endfacet
facet normal 0.193525 -0.969152 -0.152618
  outer loop
    vertex 196.1288238469487 179.4986854754507 -15.06117381894743
    vertex 195.7370691011909 179.402192053865 -14.94518043810159
    vertex 195.7927507822667 179.4830586047513 -15.38809247618093
  endloop
endfacet
facet normal -0.459906 -0.270791 0.845671
  outer loop
    vertex 195.4806812178737 180.1421259580659 -14.05904290729959
    vertex 195.1111059832522 180.3505039664641 -14.19330676232981
    vertex 195.174866050055 179.9221739723706 -14.29578652246984
  endloop
endfacet
facet normal -0.0199694 -0.805104 -0.592798
  outer loop
    vertex 195.7927507822667 179.4830586047513 -15.38809247618093
    vertex 195.42453893143 179.6370728895577 -15.584861884426
    vertex 195.8249820879454 179.7456027258233 -15.74575041752779
  endloop
endfacet
facet normal 0.34902 -0.882002 -0.316633
  outer loop
    vertex 196.1814275350834 179.6736418461302 -15.49054190521334
    vertex 196.1288238469487 179.4986854754507 -15.06117381894743
    vertex 195.7927507822667 179.4830586047513 -15.38809247618093
  endloop
endfacet
facet normal -0.0985568 0.509746 0.854661
  outer loop
    vertex 195.4278667163681 181.0473145448155 -14.28801168829118
    vertex 195.5148896763639 180.6770650403273 -14.05714840430119
    vertex 195.850683313738 180.9773253035362 -14.19751010420207
  endloop
endfacet
facet normal -0.19925 0.826632 0.526288
  outer loop
    vertex 195.767163382331 181.2552641124291 -14.48617865160668
    vertex 195.336006449493 181.2746602319196 -14.67987787660368
    vertex 195.4278667163681 181.0473145448155 -14.28801168829118
  endloop
endfacet
facet normal -0.297169 -0.477069 0.827101
  outer loop
    vertex 195.4806812178737 180.1421259580659 -14.05904290729959
    vertex 195.174866050055 179.9221739723706 -14.29578652246984
    vertex 195.5832504945708 179.7525182770927 -14.24691503036976
  endloop
endfacet
facet normal 0.241007 -0.792595 -0.560097
  outer loop
    vertex 196.1814275350834 179.6736418461302 -15.49054190521334
    vertex 195.7927507822667 179.4830586047513 -15.38809247618093
    vertex 195.8249820879454 179.7456027258233 -15.74575041752779
  endloop
endfacet
facet normal 0.24278 -0.45294 -0.857848
  outer loop
    vertex 195.8249820879454 179.7456027258233 -15.74575041752779
    vertex 195.7961524258114 180.1347343652025 -15.95936898741101
    vertex 196.1831620074283 180.0059263931705 -15.78183148246803
  endloop
endfacet
facet normal -0.0309363 0.715536 0.69789
  outer loop
    vertex 195.767163382331 181.2552641124291 -14.48617865160668
    vertex 195.4278667163681 181.0473145448155 -14.28801168829118
    vertex 195.850683313738 180.9773253035362 -14.19751010420207
  endloop
endfacet
facet normal -0.0453941 -0.44357 0.895089
  outer loop
    vertex 195.9056402647274 180.0179434850792 -14.09903113209756
    vertex 195.4806812178737 180.1421259580659 -14.05904290729959
    vertex 195.5832504945708 179.7525182770927 -14.24691503036976
  endloop
endfacet
facet normal 0.374844 -0.612239 -0.696171
  outer loop
    vertex 196.1814275350834 179.6736418461302 -15.49054190521334
    vertex 195.8249820879454 179.7456027258233 -15.74575041752779
    vertex 196.1831620074283 180.0059263931705 -15.78183148246803
  endloop
endfacet
facet normal 0.504493 0.808418 0.303229
  outer loop
    vertex 196.3641505512529 181.1355296441784 -14.86620841653811
    vertex 196.0212041081577 181.3268810630292 -14.80578512955894
    vertex 196.1776134815817 181.1059570392216 -14.47701814468865
  endloop
endfacet
facet normal 0.252348 0.732503 0.632265
  outer loop
    vertex 196.1776134815817 181.1059570392216 -14.47701814468865
    vertex 195.767163382331 181.2552641124291 -14.48617865160668
    vertex 195.850683313738 180.9773253035362 -14.19751010420207
  endloop
endfacet
facet normal 0.133293 -0.60098 0.788071
  outer loop
    vertex 195.9056402647274 180.0179434850792 -14.09903113209756
    vertex 195.5832504945708 179.7525182770927 -14.24691503036976
    vertex 196.0045952427954 179.6878431799949 -14.36750146103996
  endloop
endfacet
facet normal 0.558044 -0.624841 0.546041
  outer loop
    vertex 196.0045952427954 179.6878431799949 -14.36750146103996
    vertex 196.3735591307535 179.7221495629306 -14.70531901597941
    vertex 196.297075035699 180.0078889845394 -14.30017834179016
  endloop
endfacet
facet normal -0.199377 -0.979225 0.0369864
  outer loop
    vertex 195.3531603303871 179.4862849525422 -14.78827599183832
    vertex 195.3803029714268 179.4666049446524 -15.16299533911769
    vertex 195.7370691011909 179.402192053865 -14.94518043810159
  endloop
endfacet
facet normal -0.764909 0.578724 0.282829
  outer loop
    vertex 195.0641413457672 181.0001331893423 -14.51469192579647
    vertex 195.0775751319151 181.1559439747902 -14.79717990590678
    vertex 194.8690259387061 180.9538436933787 -14.9476619377373
  endloop
endfacet
facet normal 0.600933 -0.528667 -0.599492
  outer loop
    vertex 196.4837014958044 179.995395105789 -15.47128212893596
    vertex 196.1814275350834 179.6736418461302 -15.49054190521334
    vertex 196.1831620074283 180.0059263931705 -15.78183148246803
  endloop
endfacet
facet normal -0.988855 0.109888 -0.100452
  outer loop
    vertex 194.7153345044627 180.2752923902135 -15.12199128640854
    vertex 194.7244714752012 180.5819174043778 -14.8765084809053
    vertex 194.7732780129333 180.6621768854905 -15.26916470682776
  endloop
endfacet
facet normal 0.300234 0.851703 0.42949
  outer loop
    vertex 196.1776134815817 181.1059570392216 -14.47701814468865
    vertex 196.0212041081577 181.3268810630292 -14.80578512955894
    vertex 195.767163382331 181.2552641124291 -14.48617865160668
  endloop
endfacet
facet normal 0.726238 0.252542 0.639376
  outer loop
    vertex 196.481831482468 180.4 -14.37651019814127
    vertex 196.5047709469617 180.7983043274319 -14.55988934837306
    vertex 196.226041990027 180.7346929305352 -14.21816851753197
  endloop
endfacet
facet normal 0.175968 0.984371 -0.00701467
  outer loop
    vertex 195.6215622498106 181.3968609988841 -15.01075491743388
    vertex 196.0212041081577 181.3268810630292 -14.80578512955894
    vertex 196.0302212590705 181.3224595562729 -15.20005570998803
  endloop
endfacet
facet normal -0.435125 -0.900232 0.0157615
  outer loop
    vertex 195.3531603303871 179.4862849525422 -14.78827599183832
    vertex 195.0838413708845 179.6134829941749 -14.95829216722803
    vertex 195.3803029714268 179.4666049446524 -15.16299533911769
  endloop
endfacet
facet normal -0.423881 0.736753 0.526801
  outer loop
    vertex 195.336006449493 181.2746602319196 -14.67987787660368
    vertex 195.0641413457672 181.0001331893423 -14.51469192579647
    vertex 195.4278667163681 181.0473145448155 -14.28801168829118
  endloop
endfacet
facet normal 0.863002 -0.451301 -0.227056
  outer loop
    vertex 196.6243164789895 180.0187416818505 -14.98323272501931
    vertex 196.4196975417296 179.7331871661832 -15.19338069470757
    vertex 196.4837014958044 179.995395105789 -15.47128212893596
  endloop
endfacet
facet normal -0.903911 -0.34116 0.257981
  outer loop
    vertex 194.8596755813109 180.1477816723691 -14.52016587599258
    vertex 194.7291290693723 180.2929002915028 -14.78566547524516
    vertex 194.8250475051144 179.9190418805047 -14.94398733192286
  endloop
endfacet
facet normal -0.108088 -0.961915 0.251071
  outer loop
    vertex 195.6960251491345 179.513037007561 -14.53817660236376
    vertex 195.3531603303871 179.4862849525422 -14.78827599183832
    vertex 195.7370691011909 179.402192053865 -14.94518043810159
  endloop
endfacet
facet normal 0.43598 -0.260458 0.861442
  outer loop
    vertex 196.1338837391176 180.4 -14.09903113209758
    vertex 195.9056402647274 180.0179434850792 -14.09903113209756
    vertex 196.297075035699 180.0078889845394 -14.30017834179016
  endloop
endfacet
facet normal 0.469535 0.280504 -0.837171
  outer loop
    vertex 196.1338837391176 180.4 -15.90096886790242
    vertex 195.9056402647274 180.7820565149208 -15.90096886790243
    vertex 196.3420428104633 180.8132593389692 -15.64575362816407
  endloop
endfacet
facet normal -0.933977 0.354663 -0.0435983
  outer loop
    vertex 194.7732780129333 180.6621768854905 -15.26916470682776
    vertex 194.7244714752012 180.5819174043778 -14.8765084809053
    vertex 194.8690259387061 180.9538436933787 -14.9476619377373
  endloop
endfacet
facet normal 0.26208 -0.961252 0.0854913
  outer loop
    vertex 196.1288238469487 179.4986854754507 -15.06117381894743
    vertex 196.0231195206723 179.5018188464213 -14.70189869051525
    vertex 195.7370691011909 179.402192053865 -14.94518043810159
  endloop
endfacet
facet normal 0.340412 -0.232845 -0.91099
  outer loop
    vertex 196.1831620074283 180.0059263931705 -15.78183148246803
    vertex 195.7961524258114 180.1347343652025 -15.95936898741101
    vertex 196.1338837391176 180.4 -15.90096886790242
  endloop
endfacet
facet normal 0.622923 0.500458 0.601256
  outer loop
    vertex 196.5047709469617 180.7983043274319 -14.55988934837306
    vertex 196.1776134815817 181.1059570392216 -14.47701814468865
    vertex 196.226041990027 180.7346929305352 -14.21816851753197
  endloop
endfacet
facet normal 0.401009 0.55855 0.726095
  outer loop
    vertex 196.1776134815817 181.1059570392216 -14.47701814468865
    vertex 195.850683313738 180.9773253035362 -14.19751010420207
    vertex 196.226041990027 180.7346929305352 -14.21816851753197
  endloop
endfacet
facet normal 0.382362 -0.511326 0.76964
  outer loop
    vertex 195.9056402647274 180.0179434850792 -14.09903113209756
    vertex 196.0045952427954 179.6878431799949 -14.36750146103996
    vertex 196.297075035699 180.0078889845394 -14.30017834179016
  endloop
endfacet
facet normal 0.407788 0.507129 -0.759295
  outer loop
    vertex 195.9056402647274 180.7820565149208 -15.90096886790243
    vertex 196.0138206666078 181.1235951354293 -15.61475740678159
    vertex 196.3420428104633 180.8132593389692 -15.64575362816407
  endloop
endfacet
facet normal 0.00633639 -0.48085 -0.87678
  outer loop
    vertex 195.4646865102789 179.9735375466375 -15.87335979838055
    vertex 195.7961524258114 180.1347343652025 -15.95936898741101
    vertex 195.8249820879454 179.7456027258233 -15.74575041752779
  endloop
endfacet
facet normal -0.490689 0.394989 -0.776665
  outer loop
    vertex 195.0154267300159 180.6865766030475 -15.67024867669326
    vertex 195.2977629363679 181.006254739102 -15.686047036257
    vertex 195.3932261897596 180.6935999515403 -15.90536672006772
  endloop
endfacet
facet normal 0.619976 0.106021 0.777425
  outer loop
    vertex 196.481831482468 180.4 -14.37651019814127
    vertex 196.226041990027 180.7346929305352 -14.21816851753197
    vertex 196.1338837391176 180.4 -14.09903113209758
  endloop
endfacet
facet normal 0.768404 0.227698 -0.598088
  outer loop
    vertex 196.3420428104633 180.8132593389692 -15.64575362816407
    vertex 196.5506010203665 180.7296709248777 -15.40962786214034
    vertex 196.481831482468 180.4 -15.62348980185873
  endloop
endfacet
facet normal 0.948636 0.242299 -0.203424
  outer loop
    vertex 196.6749279121818 180.4 -15.22252093395631
    vertex 196.5506010203665 180.7296709248777 -15.40962786214034
    vertex 196.6210305183679 180.7893595398228 -15.0100961866041
  endloop
endfacet
facet normal 0.951708 -0.233748 0.19903
  outer loop
    vertex 196.6749279121818 180.4 -14.77747906604369
    vertex 196.559509171038 180.0798654640577 -14.6015556954874
    vertex 196.6243164789895 180.0187416818505 -14.98323272501931
  endloop
endfacet
facet normal 0.759743 -0.240366 0.604165
  outer loop
    vertex 196.297075035699 180.0078889845394 -14.30017834179016
    vertex 196.559509171038 180.0798654640577 -14.6015556954874
    vertex 196.481831482468 180.4 -14.37651019814127
  endloop
endfacet
facet normal -0.901958 -0.0224141 0.431243
  outer loop
    vertex 194.8601240347724 180.6006922569952 -14.49568761564367
    vertex 194.7291290693723 180.2929002915028 -14.78566547524516
    vertex 194.8596755813109 180.1477816723691 -14.52016587599258
  endloop
endfacet
facet normal -0.34105 0.438359 0.831581
  outer loop
    vertex 195.4278667163681 181.0473145448155 -14.28801168829118
    vertex 195.1400876031175 180.745256158511 -14.24680925866849
    vertex 195.5148896763639 180.6770650403273 -14.05714840430119
  endloop
endfacet
facet normal 0.845619 0.485609 -0.221614
  outer loop
    vertex 196.6210305183679 180.7893595398228 -15.0100961866041
    vertex 196.5506010203665 180.7296709248777 -15.40962786214034
    vertex 196.3909475574502 181.0569512193787 -15.30167294908624
  endloop
endfacet
facet normal 0.705452 -0.509599 0.492591
  outer loop
    vertex 196.3735591307535 179.7221495629306 -14.70531901597941
    vertex 196.559509171038 180.0798654640577 -14.6015556954874
    vertex 196.297075035699 180.0078889845394 -14.30017834179016
  endloop
endfacet
facet normal 0.0928578 0.79061 -0.605238
  outer loop
    vertex 196.0138206666078 181.1235951354293 -15.61475740678159
    vertex 195.6428559053315 181.0738451487479 -15.73665953326718
    vertex 195.7285349064915 181.3084082533432 -15.41710934342143
  endloop
endfacet
facet normal -0.698362 0.146234 0.700647
  outer loop
    vertex 195.1111059832522 180.3505039664641 -14.19330676232981
    vertex 195.1400876031175 180.745256158511 -14.24680925866849
    vertex 194.8601240347724 180.6006922569952 -14.49568761564367
  endloop
endfacet
facet normal 0.0211364 -0.240182 0.970498
  outer loop
    vertex 195.7 180.4 -14
    vertex 195.4806812178737 180.1421259580659 -14.05904290729959
    vertex 195.9056402647274 180.0179434850792 -14.09903113209756
  endloop
endfacet
facet normal 0.102831 -0.957065 0.271021
  outer loop
    vertex 195.7370691011909 179.402192053865 -14.94518043810159
    vertex 196.0231195206723 179.5018188464213 -14.70189869051525
    vertex 195.6960251491345 179.513037007561 -14.53817660236376
  endloop
endfacet
facet normal -0.689261 0.724302 -0.0175225
  outer loop
    vertex 194.8690259387061 180.9538436933787 -14.9476619377373
    vertex 195.0775751319151 181.1559439747902 -14.79717990590678
    vertex 195.1933823616675 181.2596471773957 -15.06591888140819
  endloop
endfacet
facet normal 0.897054 0.0931172 -0.431999
  outer loop
    vertex 196.481831482468 180.4 -15.62348980185873
    vertex 196.5506010203665 180.7296709248777 -15.40962786214034
    vertex 196.6749279121818 180.4 -15.22252093395631
  endloop
endfacet
facet normal -0.0628935 -0.980363 -0.186901
  outer loop
    vertex 195.7370691011909 179.402192053865 -14.94518043810159
    vertex 195.3803029714268 179.4666049446524 -15.16299533911769
    vertex 195.7927507822667 179.4830586047513 -15.38809247618093
  endloop
endfacet
facet normal -0.487076 -0.801676 0.346515
  outer loop
    vertex 195.3531603303871 179.4862849525422 -14.78827599183832
    vertex 195.3318611857398 179.6379693179228 -14.46728708199624
    vertex 195.0383763738909 179.7392394813554 -14.64552896539376
  endloop
endfacet
facet normal -0.141029 -0.224481 -0.96422
  outer loop
    vertex 195.4646865102789 179.9735375466375 -15.87335979838055
    vertex 195.3971762762559 180.3533183928466 -15.95190263151823
    vertex 195.7961524258114 180.1347343652025 -15.95936898741101
  endloop
endfacet
facet normal -0.922541 -0.193164 -0.334074
  outer loop
    vertex 194.8601781872306 180.2929956933928 -15.53221180103805
    vertex 194.8442164905003 179.9865340090316 -15.31093481500289
    vertex 194.7153345044627 180.2752923902135 -15.12199128640854
  endloop
endfacet
facet normal -0.173709 -0.906609 -0.384558
  outer loop
    vertex 195.7927507822667 179.4830586047513 -15.38809247618093
    vertex 195.3803029714268 179.4666049446524 -15.16299533911769
    vertex 195.42453893143 179.6370728895577 -15.584861884426
  endloop
endfacet
facet normal 0.0696684 -0.757148 0.649518
  outer loop
    vertex 195.5832504945708 179.7525182770927 -14.24691503036976
    vertex 195.6960251491345 179.513037007561 -14.53817660236376
    vertex 196.0045952427954 179.6878431799949 -14.36750146103996
  endloop
endfacet
facet normal -0.225503 -0.88654 0.403974
  outer loop
    vertex 195.6960251491345 179.513037007561 -14.53817660236376
    vertex 195.3318611857398 179.6379693179228 -14.46728708199624
    vertex 195.3531603303871 179.4862849525422 -14.78827599183832
  endloop
endfacet
facet normal 0.479308 -0.755412 0.446785
  outer loop
    vertex 196.0045952427954 179.6878431799949 -14.36750146103996
    vertex 196.0231195206723 179.5018188464213 -14.70189869051525
    vertex 196.3735591307535 179.7221495629306 -14.70531901597941
  endloop
endfacet
facet normal 0.897625 -0.0860755 0.432273
  outer loop
    vertex 196.481831482468 180.4 -14.37651019814127
    vertex 196.559509171038 180.0798654640577 -14.6015556954874
    vertex 196.6749279121818 180.4 -14.77747906604369
  endloop
endfacet
facet normal -0.778493 -0.340267 -0.527415
  outer loop
    vertex 195.0908169293155 179.9269422978708 -15.6364844042454
    vertex 194.8442164905003 179.9865340090316 -15.31093481500289
    vertex 194.8601781872306 180.2929956933928 -15.53221180103805
  endloop
endfacet
facet normal 0.530036 -0.806 -0.263487
  outer loop
    vertex 196.1814275350834 179.6736418461302 -15.49054190521334
    vertex 196.4196975417296 179.7331871661832 -15.19338069470757
    vertex 196.1288238469487 179.4986854754507 -15.06117381894743
  endloop
endfacet
facet normal 0.355909 0.224877 0.907061
  outer loop
    vertex 196.226041990027 180.7346929305352 -14.21816851753197
    vertex 195.8330272521047 180.6996561598228 -14.0552725599001
    vertex 196.1338837391176 180.4 -14.09903113209758
  endloop
endfacet
facet normal -0.422012 -0.824328 -0.377346
  outer loop
    vertex 195.42453893143 179.6370728895577 -15.584861884426
    vertex 195.3803029714268 179.4666049446524 -15.16299533911769
    vertex 195.0596870288943 179.6875953346489 -15.28719138535088
  endloop
endfacet
facet normal 0.221794 0.0807794 0.971742
  outer loop
    vertex 196.1338837391176 180.4 -14.09903113209758
    vertex 195.8330272521047 180.6996561598228 -14.0552725599001
    vertex 195.7 180.4 -14
  endloop
endfacet
facet normal -0.711982 -0.548054 -0.438998
  outer loop
    vertex 195.0596870288943 179.6875953346489 -15.28719138535088
    vertex 194.8442164905003 179.9865340090316 -15.31093481500289
    vertex 195.0908169293155 179.9269422978708 -15.6364844042454
  endloop
endfacet
facet normal -0.939681 0.0886921 0.330352
  outer loop
    vertex 194.7244714752012 180.5819174043778 -14.8765084809053
    vertex 194.7291290693723 180.2929002915028 -14.78566547524516
    vertex 194.8601240347724 180.6006922569952 -14.49568761564367
  endloop
endfacet
facet normal -0.520651 -0.840291 -0.15111
  outer loop
    vertex 195.3803029714268 179.4666049446524 -15.16299533911769
    vertex 195.0838413708845 179.6134829941749 -14.95829216722803
    vertex 195.0596870288943 179.6875953346489 -15.28719138535088
  endloop
endfacet
facet normal -0.393785 -0.252772 -0.883765
  outer loop
    vertex 195.1468185314989 180.3112673198377 -15.82832166117894
    vertex 195.3971762762559 180.3533183928466 -15.95190263151823
    vertex 195.4646865102789 179.9735375466375 -15.87335979838055
  endloop
endfacet
facet normal -0.549618 -0.632764 0.545463
  outer loop
    vertex 195.0383763738909 179.7392394813554 -14.64552896539376
    vertex 195.3318611857398 179.6379693179228 -14.46728708199624
    vertex 195.174866050055 179.9221739723706 -14.29578652246984
  endloop
endfacet
facet normal 0.176414 0.598797 -0.78123
  outer loop
    vertex 195.9056402647274 180.7820565149208 -15.90096886790243
    vertex 195.6428559053315 181.0738451487479 -15.73665953326718
    vertex 196.0138206666078 181.1235951354293 -15.61475740678159
  endloop
endfacet
facet normal 0.221998 -0.0685109 -0.972637
  outer loop
    vertex 196.1338837391176 180.4 -15.90096886790242
    vertex 195.7961524258114 180.1347343652025 -15.95936898741101
    vertex 195.7 180.4 -16
  endloop
endfacet
facet normal -0.222141 0.513557 -0.828802
  outer loop
    vertex 195.2977629363679 181.006254739102 -15.686047036257
    vertex 195.6428559053315 181.0738451487479 -15.73665953326718
    vertex 195.3932261897596 180.6935999515403 -15.90536672006772
  endloop
endfacet
facet normal 0.674233 -0.60835 -0.418712
  outer loop
    vertex 196.4837014958044 179.995395105789 -15.47128212893596
    vertex 196.4196975417296 179.7331871661832 -15.19338069470757
    vertex 196.1814275350834 179.6736418461302 -15.49054190521334
  endloop
endfacet
facet normal -0.495653 0.711911 -0.497504
  outer loop
    vertex 195.0188915348481 181.0250532860873 -15.3813130580637
    vertex 195.3658319613673 181.2531769211318 -15.4005257335109
    vertex 195.2977629363679 181.006254739102 -15.686047036257
  endloop
endfacet
facet normal 0.316158 0.416531 0.852377
  outer loop
    vertex 195.850683313738 180.9773253035362 -14.19751010420207
    vertex 195.8330272521047 180.6996561598228 -14.0552725599001
    vertex 196.226041990027 180.7346929305352 -14.21816851753197
  endloop
endfacet
facet normal -0.536707 0.791663 -0.291916
  outer loop
    vertex 195.1933823616675 181.2596471773957 -15.06591888140819
    vertex 195.3658319613673 181.2531769211318 -15.4005257335109
    vertex 195.0188915348481 181.0250532860873 -15.3813130580637
  endloop
endfacet
facet normal -0.464335 0.874917 0.137525
  outer loop
    vertex 195.1933823616675 181.2596471773957 -15.06591888140819
    vertex 195.0775751319151 181.1559439747902 -14.79717990590678
    vertex 195.336006449493 181.2746602319196 -14.67987787660368
  endloop
endfacet
facet normal -0.124606 -0.194204 -0.973015
  outer loop
    vertex 195.7961524258114 180.1347343652025 -15.95936898741101
    vertex 195.3971762762559 180.3533183928466 -15.95190263151823
    vertex 195.7 180.4 -16
  endloop
endfacet
facet normal -0.0377252 0.457493 0.888413
  outer loop
    vertex 195.5148896763639 180.6770650403273 -14.05714840430119
    vertex 195.8330272521047 180.6996561598228 -14.0552725599001
    vertex 195.850683313738 180.9773253035362 -14.19751010420207
  endloop
endfacet
facet normal -0.341065 -0.616589 0.709572
  outer loop
    vertex 195.174866050055 179.9221739723706 -14.29578652246984
    vertex 195.3318611857398 179.6379693179228 -14.46728708199624
    vertex 195.5832504945708 179.7525182770927 -14.24691503036976
  endloop
endfacet
facet normal -0.455195 0.115455 -0.882875
  outer loop
    vertex 195.3932261897596 180.6935999515403 -15.90536672006772
    vertex 195.3971762762559 180.3533183928466 -15.95190263151823
    vertex 195.1468185314989 180.3112673198377 -15.82832166117894
  endloop
endfacet
facet normal -0.932623 -0.34309 -0.111823
  outer loop
    vertex 194.8442164905003 179.9865340090316 -15.31093481500289
    vertex 194.8250475051144 179.9190418805047 -14.94398733192286
    vertex 194.7153345044627 180.2752923902135 -15.12199128640854
  endloop
endfacet
facet normal -0.175229 0.131402 -0.975719
  outer loop
    vertex 195.7 180.4 -16
    vertex 195.3971762762559 180.3533183928466 -15.95190263151823
    vertex 195.3932261897596 180.6935999515403 -15.90536672006772
  endloop
endfacet
facet normal -0.156717 -0.79179 0.590346
  outer loop
    vertex 195.5832504945708 179.7525182770927 -14.24691503036976
    vertex 195.3318611857398 179.6379693179228 -14.46728708199624
    vertex 195.6960251491345 179.513037007561 -14.53817660236376
  endloop
endfacet
facet normal -0.536709 -0.806973 0.24645
  outer loop
    vertex 195.0383763738909 179.7392394813554 -14.64552896539376
    vertex 195.0838413708845 179.6134829941749 -14.95829216722803
    vertex 195.3531603303871 179.4862849525422 -14.78827599183832
  endloop
endfacet
facet normal -0.751061 -0.643107 0.149403
  outer loop
    vertex 194.8250475051144 179.9190418805047 -14.94398733192286
    vertex 195.0838413708845 179.6134829941749 -14.95829216722803
    vertex 195.0383763738909 179.7392394813554 -14.64552896539376
  endloop
endfacet
facet normal -0.52494 0.7556 0.3918
  outer loop
    vertex 195.336006449493 181.2746602319196 -14.67987787660368
    vertex 195.0775751319151 181.1559439747902 -14.79717990590678
    vertex 195.0641413457672 181.0001331893423 -14.51469192579647
  endloop
endfacet
facet normal 0.213129 -0.84874 0.483959
  outer loop
    vertex 195.6960251491345 179.513037007561 -14.53817660236376
    vertex 196.0231195206723 179.5018188464213 -14.70189869051525
    vertex 196.0045952427954 179.6878431799949 -14.36750146103996
  endloop
endfacet
facet normal -0.961547 -0.269371 0.0535409
  outer loop
    vertex 194.8250475051144 179.9190418805047 -14.94398733192286
    vertex 194.7291290693723 180.2929002915028 -14.78566547524516
    vertex 194.7153345044627 180.2752923902135 -15.12199128640854
  endloop
endfacet
facet normal -0.999148 -0.00316854 0.0411464
  outer loop
    vertex 194.7153345044627 180.2752923902135 -15.12199128640854
    vertex 194.7291290693723 180.2929002915028 -14.78566547524516
    vertex 194.7244714752012 180.5819174043778 -14.8765084809053
  endloop
endfacet
facet normal -0.0192532 0.189619 0.981669
  outer loop
    vertex 195.7 180.4 -14
    vertex 195.8330272521047 180.6996561598228 -14.0552725599001
    vertex 195.5148896763639 180.6770650403273 -14.05714840430119
  endloop
endfacet
endsolid Created by Gmsh
